<?xml version="1.0" encoding="iso-8859-1"?>
<!-- Uploaded to: SVG Repo, www.svgrepo.com, Generator: SVG Repo Mixer Tools -->
<svg fill="#ffffff" height="800px" width="800px" version="1.1" id="Layer_1" xmlns="http://www.w3.org/2000/svg" xmlns:xlink="http://www.w3.org/1999/xlink" 
	 viewBox="0 0 512 512" xml:space="preserve">
<g>
	<g>
		<path d="M490.667,320h-21.333V85.333C469.333,73.551,459.782,64,448,64H64c-11.782,0-21.333,9.551-21.333,21.333V320H21.333
			C9.551,320,0,329.551,0,341.333v85.333C0,438.449,9.551,448,21.333,448h469.333c11.782,0,21.333-9.551,21.333-21.333v-85.333
			C512,329.551,502.449,320,490.667,320z M85.333,106.667h341.333V320H85.333V106.667z M469.333,405.333H42.667v-42.667H64h384
			h21.333V405.333z"/>
	</g>
</g>
</svg>