<svg width="32" height="40" viewBox="0 0 32 40" fill="none" xmlns="http://www.w3.org/2000/svg">
<path fill-rule="evenodd" clip-rule="evenodd" d="M22.25 5.6375V5.6125C22.2575 5.5375 22.2825 5.22 21.3475 4.7375C20.2575 4.17 18.4175 3.75 16 3.75C13.5825 3.75 11.7425 4.1725 10.655 4.735C9.7175 5.22 9.7425 5.535 9.75 5.6125V5.6375C9.7425 5.7125 9.7175 6.03 10.655 6.5125C11.7425 7.08 13.5825 7.5 16 7.5C18.4175 7.5 20.2575 7.0775 21.3475 6.515C22.2825 6.03 22.2575 5.715 22.25 5.6375ZM26 5.625C26 7.47 24.9175 8.86 23.16 9.7975L25.2225 15.5725C29.105 16.7725 31.625 18.8725 31.625 21.8725C31.625 26.5075 25.62 28.9925 17.875 29.335V37.5C17.875 37.9973 17.6775 38.4742 17.3258 38.8258C16.9742 39.1775 16.4973 39.375 16 39.375C15.5027 39.375 15.0258 39.1775 14.6742 38.8258C14.3225 38.4742 14.125 37.9973 14.125 37.5V29.335C6.38 28.995 0.375 26.5075 0.375 21.875C0.375 18.875 2.895 16.775 6.7775 15.575L8.84 9.7975C7.0825 8.86 6 7.47 6 5.625C6 1.875 10.475 0 16 0C21.525 0 26 1.875 26 5.625Z" fill="#FFD500"/>
</svg>
