<svg width="32" height="32" viewBox="0 0 32 32" fill="none" xmlns="http://www.w3.org/2000/svg">
<path fill-rule="evenodd" clip-rule="evenodd" d="M21 4.51V4.49C21.006 4.43 21.026 4.176 20.278 3.79C19.406 3.336 17.934 3 16 3C14.066 3 12.594 3.338 11.724 3.788C10.974 4.176 10.994 4.428 11 4.49V4.51C10.994 4.57 10.974 4.824 11.724 5.21C12.594 5.664 14.066 6 16 6C17.934 6 19.406 5.662 20.278 5.212C21.026 4.824 21.006 4.572 21 4.51ZM24 4.5C24 5.976 23.134 7.088 21.728 7.838L23.378 12.458C26.484 13.418 28.5 15.098 28.5 17.498C28.5 21.206 23.696 23.194 17.5 23.468V30C17.5 30.3978 17.342 30.7794 17.0607 31.0607C16.7794 31.342 16.3978 31.5 16 31.5C15.6022 31.5 15.2206 31.342 14.9393 31.0607C14.658 30.7794 14.5 30.3978 14.5 30V23.468C8.304 23.196 3.5 21.206 3.5 17.5C3.5 15.1 5.516 13.42 8.622 12.46L10.272 7.838C8.866 7.088 8 5.976 8 4.5C8 1.5 11.58 0 16 0C20.42 0 24 1.5 24 4.5Z" fill="white"/>
</svg>
